# xmcd
#
# Track frame offsets: 
#        150
#        9020
#        18366
#        28583
#        39807
#        51776
#        61752
#        72026
#        83899
#        95196
#        106128
#        117108
#        128739
#
# Disc length: 1869 seconds
#
# Revision: 0
# Processed by: cddbd v1.5.2PL0 Copyright (c) Steve Scherf et al.
# Submitted via: ExactAudioCopy v0.95b2
#
DISCID=92074b0d
DTITLE=Elvis Presley - The Original Hit Albums [CD1)
DYEAR=2007
DGENRE=Blues
TTITLE0=That's All Right
TTITLE1=Blue Moon Of Kentucky
TTITLE2=Good Rockin' Tonight
TTITLE3=I Don't Care If The Sun Don't Shine
TTITLE4=Milkcow Blues Boogie
TTITLE5=You're A Heartbreaker
TTITLE6=Baby Let's Play House
TTITLE7=I'm Left, You're Right, She's Gone
TTITLE8=I Forgot To Remember To Forget
TTITLE9=Mystery Train
TTITLE10=I'll Never Let You Go (Little Darlin')
TTITLE11=Just Becasue
TTITLE12=Trying To Get To You
EXTD=
EXTT0=
EXTT1=
EXTT2=
EXTT3=
EXTT4=
EXTT5=
EXTT6=
EXTT7=
EXTT8=
EXTT9=
EXTT10=
EXTT11=
EXTT12=
PLAYORDER=
